<?xml version="1.0" standalone="no"?>
<!DOCTYPE svg PUBLIC "-//W3C//DTD SVG 20010904//EN"
 "http://www.w3.org/TR/2001/REC-SVG-20010904/DTD/svg10.dtd">
<svg version="1.0" xmlns="http://www.w3.org/2000/svg"
 width="98.000000pt" height="85.000000pt" viewBox="0 0 98.000000 85.000000"
 preserveAspectRatio="xMidYMid meet">

<g transform="translate(0.000000,85.000000) scale(0.100000,-0.100000)"
fill="#08e900" stroke="none">
<path d="M772 784 c2 -36 8 -59 16 -62 10 -3 12 10 10 54 -2 35 -8 59 -16 62
-9 3 -12 -11 -10 -54z"/>
<path d="M308 762 c-35 -40 -51 -103 -29 -116 28 -18 61 31 61 89 0 41 -12 51
-32 27z"/>
<path d="M832 715 c-18 -14 -20 -19 -9 -36 9 -15 19 -18 42 -13 37 8 87 42 80
55 -10 15 -89 10 -113 -6z"/>
<path d="M643 678 c-11 -13 -24 -33 -27 -44 -4 -12 -20 -27 -37 -34 -41 -17
-80 -71 -86 -120 l-6 -40 172 0 171 0 0 23 c0 12 -9 41 -21 62 -13 25 -21 56
-20 82 2 34 -4 48 -23 68 -33 33 -94 35 -123 3z"/>
<path d="M170 651 c0 -5 8 -12 19 -16 10 -3 26 -14 36 -25 21 -23 35 -26 35
-6 0 8 -15 24 -34 35 -36 23 -56 27 -56 12z"/>
<path d="M313 598 c-7 -9 -4 -18 8 -30 17 -16 19 -16 33 4 8 12 13 25 10 30
-8 12 -40 10 -51 -4z"/>
<path d="M405 560 c-8 -12 24 -41 40 -36 6 1 10 11 10 22 0 21 -39 32 -50 14z"/>
<path d="M240 540 c-13 -8 -12 -13 7 -32 25 -25 31 -22 35 12 3 27 -17 36 -42
20z"/>
<path d="M333 498 c-6 -9 -2 -20 13 -35 l23 -21 10 28 c5 16 7 31 4 34 -11 10
-40 6 -50 -6z"/>
<path d="M168 479 c-26 -15 -22 -39 6 -39 26 0 51 24 41 40 -8 13 -25 12 -47
-1z"/>
<path d="M420 455 c0 -8 5 -15 10 -15 6 0 10 7 10 15 0 8 -4 15 -10 15 -5 0
-10 -7 -10 -15z"/>
<path d="M268 443 c6 -2 18 -2 25 0 6 3 1 5 -13 5 -14 0 -19 -2 -12 -5z"/>
<path d="M84 333 c13 -112 76 -201 175 -247 42 -19 64 -21 231 -21 168 0 189
2 231 21 103 48 164 133 176 244 l6 60 -413 0 -413 0 7 -57z"/>
</g>
</svg>
